<svg xmlns="http://www.w3.org/2000/svg" viewBox="0 0 1600 420" width="1600" height="420">
<defs><linearGradient id="bg" x1="0" y1="0" x2="1" y2="1"><stop offset="0" stop-color="#0b0b12"/><stop offset="1" stop-color="#171022"/></linearGradient><linearGradient id="a" x1="0" y1="0" x2="1" y2="0"><stop offset="0" stop-color="#7c3aed"/><stop offset="1" stop-color="#a78bfa"/></linearGradient></defs>
<rect width="1600" height="420" rx="28" fill="url(#bg)"/>
<circle cx="1370" cy="80" r="170" fill="#7c3aed" opacity=".08"/><circle cx="1480" cy="350" r="230" fill="#a78bfa" opacity=".05"/>
<path d="M0 360 C260 300 360 430 650 350 S1120 270 1600 330" fill="none" stroke="#7c3aed" stroke-opacity=".16" stroke-width="2"/>
<g transform="translate(105 105)"><rect width="76" height="76" rx="18" fill="#7c3aed" opacity=".15" stroke="#a78bfa" stroke-opacity=".5"/><path d="M20 25h36v10H20zm0 18h26v10H20zm0 18h18v10H20z" fill="url(#a)"/></g>
<text x="105" y="245" font-family="Arial,Helvetica,sans-serif" font-size="68" font-weight="700" fill="#f5f3ff">Soham Parab</text>
<text x="108" y="295" font-family="Arial,Helvetica,sans-serif" font-size="27" fill="#c4b5fd">Computer Engineering Student • Building • Learning • Exploring AI</text>
<rect x="108" y="325" width="420" height="4" rx="2" fill="url(#a)"/><text x="108" y="365" font-family="monospace" font-size="17" fill="#8f8aa3">soham-parab234</text>
</svg>